{"title":"The Ring [2002] [HDrip] [720x384] [Hindi] [-=BY RAJ-=]","uid":6451900,"size":1242899286,"categoryP":"video","categoryS":"hd___movies","magnet":"?xt=urn:btih:244f00f726e591afcb167f7ae9991972f2678897&amp;dn=The+Ring+%5B2002%5D+%5BHDrip%5D+%5B720x384%5D+%5BHindi%5D+%5B-%3DBY+RAJ-%3D%5D&amp;tr=udp%3A%2F%2Ftracker.openbittorrent.com%3A80&amp;tr=udp%3A%2F%2Fopen.demonii.com%3A1337&amp;tr=udp%3A%2F%2Ftracker.coppersurfer.tk%3A6969&amp;tr=udp%3A%2F%2Fexodus.desync.com%3A6969","seeders":0,"leechers":1,"uploader":"kaushal77","files":1,"time":1307455901,"description":"The Ring [2002] [HDrip] [720x384] [Hindi] [-=BY RAJ-=]\n\n\n\n\n\n\nFormat                           : Matroska\nFile size                        : 1.16 GiB\nDuration                         : 1h 50mn\nOverall bit rate                 : 1 499 Kbps\nMovie name                       : HINDI BY [-=RAJ=-]\nEncoded date                     : UTC 2011-05-06 12:12:09\nWriting application              : mkvmerge v4.7.0 ('Just Like You Imagined') built on Apr 21 2011 01:13:14\nWriting library                  : libebml v1.2.0 + libmatroska v1.1.0\n\nVideo\nID                               : 1\nFormat                           : MPEG-4 Visual\nFormat profile                   : Advanced Simple@L5\nFormat settings, BVOP            : Yes\nFormat settings, QPel            : No\nFormat settings, GMC             : No warppoints\nFormat settings, Matrix          : Default (MPEG)\nCodec ID                         : XVID\nCodec ID/Hint                    : XviD\nDuration                         : 1h 50mn\nBit rate                         : 1 341 Kbps\nWidth                            : 720 pixels\nHeight                           : 384 pixels\nDisplay aspect ratio             : 1.875\nFrame rate                       : 25.000 fps\nColor space                      : YUV\nChroma subsampling               : 4:2:0\nBit depth                        : 8 bits\nScan type                        : Progressive\nCompression mode                 : Lossy\nBits/(Pixel*Frame)               : 0.194\nStream size                      : 1.04 GiB (89%)\nWriting library                  : XviD 1.2.1 (UTC 2008-12-04)\n\nAudio\nID                               : 2\nFormat                           : AC-3\nFormat/Info                      : Audio Coding 3\nMode extension                   : CM (complete main)\nMuxing mode                      : Header stripping\nCodec ID                         : A_AC3\nDuration                         : 1h 50mn\nBit rate mode                    : Constant\nBit rate                         : 128 Kbps\nChannel(s)                       : 2 channels\nChannel positions                : Front: L R\nSampling rate                    : 48.0 KHz\nBit depth                        : 16 bits\nCompression mode                 : Lossy\nDelay relative to video          : 1s 100ms\nStream size                      : 101 MiB (9%)\nTitle                            : [-=RAJ=-]\nLanguage                         : Hindi","torrent":{"xt":"urn:btih:244f00f726e591afcb167f7ae9991972f2678897","amp;dn":"The+Ring+%5B2002%5D+%5BHDrip%5D+%5B720x384%5D+%5BHindi%5D+%5B-%3DBY+RAJ-%3D%5D","amp;tr":["udp%3A%2F%2Ftracker.openbittorrent.com%3A80","udp%3A%2F%2Fopen.demonii.com%3A1337","udp%3A%2F%2Ftracker.coppersurfer.tk%3A6969","udp%3A%2F%2Fexodus.desync.com%3A6969"],"infoHash":"244f00f726e591afcb167f7ae9991972f2678897","infoHashBuffer":{"type":"Buffer","data":[36,79,0,247,38,229,145,175,203,22,127,122,233,153,25,114,242,103,136,151]},"announce":[],"urlList":[]}}